<svg width="142" height="23" viewBox="0 0 142 23" fill="none" xmlns="http://www.w3.org/2000/svg">
<path d="M22.4004 23V13.4873H6.72852V23H0.569336V0.189453H6.72852V8.49023H22.4004V0.189453H28.5596V23H22.4004ZM37.1982 23V0.189453H43.3574V23H37.1982ZM58.1719 23H52.0127V0.189453H67.4521C69.1123 0.189453 70.5179 0.361003 71.6689 0.704102C72.8311 1.0472 73.7718 1.53418 74.4912 2.16504C75.2217 2.7959 75.7474 3.55957 76.0684 4.45605C76.4004 5.34147 76.5664 6.33203 76.5664 7.42773C76.5664 8.39062 76.4281 9.23177 76.1514 9.95117C75.8857 10.6706 75.5205 11.2904 75.0557 11.8105C74.6019 12.3197 74.0706 12.7513 73.4619 13.1055C72.8532 13.4596 72.2113 13.7529 71.5361 13.9854L79.0068 23H71.8018L64.8955 14.5996H58.1719V23ZM70.3408 7.39453C70.3408 6.95182 70.2799 6.57552 70.1582 6.26562C70.0475 5.95573 69.8483 5.70671 69.5605 5.51855C69.2728 5.31934 68.8854 5.17546 68.3984 5.08691C67.9225 4.99837 67.3249 4.9541 66.6055 4.9541H58.1719V9.83496H66.6055C67.3249 9.83496 67.9225 9.79069 68.3984 9.70215C68.8854 9.61361 69.2728 9.47526 69.5605 9.28711C69.8483 9.08789 70.0475 8.83333 70.1582 8.52344C70.2799 8.21354 70.3408 7.83724 70.3408 7.39453ZM84.9229 23V0.189453H108.016V5.05371H91.248V8.82227H107.152V13.6865H91.248V18.1357H108.248V23H84.9229ZM130.799 11.2959L141.623 23H134.235L127.097 15.3135L119.991 23H112.62L123.428 11.2959L113.151 0.189453H120.539L127.097 7.32812L133.688 0.189453H141.075L130.799 11.2959Z" fill="#007684"/>
</svg>
