<svg width="86" height="22" viewBox="0 0 86 22" fill="none" xmlns="http://www.w3.org/2000/svg">
<g clip-path="url(#clip0_3130_7972)">
<path d="M9.92424 21.7161V14.4288H9.85692C9.71106 14.9113 9.48106 15.2815 9.17251 15.5396C8.86397 15.7976 8.40395 15.9491 7.78686 15.994C6.21609 16.0557 4.79678 16.0557 3.53455 15.994C2.41817 15.9491 1.57669 15.6237 0.998866 15.0122C0.426655 14.4008 0.112499 13.6154 0.0507904 12.6448C-0.0221385 11.1919 -0.0221385 9.76693 0.0507904 8.37005C0.0956697 7.46124 0.415435 6.66463 1.02131 5.99143C1.62157 5.31824 2.47988 4.97603 3.59626 4.97603H13.0434C13.0714 6.63658 13.0882 9.11618 13.0882 12.4204C13.0882 15.7415 13.0714 20.0724 13.0434 21.7161H9.91863H9.92424ZM4.68458 13.6322H8.62835C9.0547 13.6322 9.38008 13.4807 9.59887 13.1778C9.81765 12.8748 9.92985 12.4765 9.92985 11.9773V7.33221H4.69019C3.71967 7.33221 3.23722 7.89882 3.23722 9.02642V11.9324C3.23722 13.0656 3.71967 13.6266 4.69019 13.6266L4.68458 13.6322ZM19.0011 15.9884C17.8847 15.9603 17.0432 15.6349 16.471 15.0066C15.8988 14.3839 15.5846 13.5985 15.5229 12.6617C15.4332 10.9899 15.4332 8.42615 15.5229 4.97603C18.9562 4.88627 22.21 4.88627 25.2786 4.97603C26.4118 5.00408 27.2701 5.33507 27.8647 5.96899C28.4594 6.60292 28.7736 7.38831 28.8016 8.32517C28.8577 9.77815 28.8577 11.2031 28.8016 12.6C28.7567 13.4639 28.4426 14.2437 27.8535 14.9225C27.2645 15.6069 26.4062 15.9603 25.2786 15.9884C23.1805 16.0613 21.088 16.0613 19.0011 15.9884ZM20.1006 13.6546H24.1734C25.1552 13.6546 25.6488 13.088 25.6488 11.9604V9.03203C25.6488 7.8876 25.1552 7.31538 24.1734 7.31538H18.6477V11.9604C18.6477 13.0936 19.1301 13.6546 20.1006 13.6546ZM31.3092 3.30426C31.2644 2.77693 31.2419 2.22715 31.2419 1.65494C31.2419 1.05467 31.2644 0.504896 31.3092 0.00560995H34.3498C34.3947 0.594655 34.4171 1.14443 34.4171 1.65494C34.4171 2.18227 34.3947 2.73205 34.3498 3.30426H31.3092ZM31.3317 15.9884C31.2868 14.771 31.2644 12.9366 31.2644 10.4794C31.2644 8.02785 31.2868 6.19339 31.3317 4.97042H34.3947C34.4227 6.18778 34.4396 8.02223 34.4396 10.4794C34.4396 12.9309 34.4227 14.7654 34.3947 15.9884H31.3317ZM37.037 15.9884C36.9921 14.771 36.9696 12.9366 36.9696 10.4794C36.9696 8.02785 36.9921 6.19339 37.037 4.97042H39.8756H43.3167L38.8935 5.79779C39.2638 4.78239 41.3005 5.0153 42.473 4.97042C44.1447 4.89749 46.5458 4.89749 49.6761 4.97042C49.749 8.08395 49.7434 11.7529 49.6537 15.9828H46.5458V7.30416H41.5249C40.5993 7.30416 40.1392 7.84272 40.1392 8.91422V15.9828H37.0314L37.037 15.9884ZM52.2118 21.7161C52.1669 20.0724 52.1445 15.7359 52.1445 12.398C52.1445 9.09374 52.1669 6.61975 52.2118 4.97603H55.0504H57.7782L53.3879 5.79779C53.6684 4.79922 56.3295 5.03774 57.429 4.97603C58.8259 4.9031 61.4064 4.9031 65.1819 4.97603C65.2717 8.61689 65.2773 11.1582 65.2043 12.5943C65.1482 13.4751 64.8229 14.2605 64.2338 14.9505C63.6448 15.6406 62.7921 15.9884 61.6813 15.9884H55.3141V21.7161H52.2062H52.2118ZM55.3197 13.6097H60.5818C61.5523 13.6097 62.0347 13.0431 62.0347 11.9155V7.30977H56.6156C55.7516 7.30977 55.3141 7.85955 55.3141 8.9591V13.6041L55.3197 13.6097ZM70.343 15.9884C68.6993 15.9435 67.7569 15.1581 67.5212 13.6322C67.4932 13.3966 67.4764 13.0319 67.4764 12.5439C67.4764 12.0502 67.4932 11.6687 67.5212 11.3882C67.6951 9.87352 68.6825 9.12179 70.4721 9.12179H75.1395C76.1661 9.12179 78.9094 9.16966 79.2179 9.90456L77.2152 9.42141L77.2096 8.83568C77.2096 7.83711 76.7103 7.33782 75.7117 7.33782H72.0316C70.4328 7.33782 69.2323 7.29855 68.4413 7.22562V4.98164H76.6766C77.7762 4.98164 78.6233 5.2397 79.2179 5.76142C79.8126 6.28315 80.1492 7.04049 80.2221 8.03907C80.295 9.60985 80.3006 12.2634 80.2445 15.9884H70.3318H70.343ZM71.3809 13.6771L77.2152 13.6546V12.2465C77.2152 11.5285 76.8561 11.1694 76.1381 11.1694H71.4706C70.8367 11.1694 70.5225 11.4836 70.5225 12.1175V12.6897C70.5225 13.3349 70.8086 13.6658 71.3809 13.6827V13.6771ZM82.898 15.9884C82.8531 14.21 82.8307 11.5453 82.8307 7.99419C82.8307 4.44308 82.8531 1.77836 82.898 0H85.961C85.9891 1.77836 86.0059 4.44308 86.0059 7.99419C86.0059 11.5453 85.9891 14.2156 85.961 15.9884H82.898Z" fill="#111111"/>
<path fill-rule="evenodd" clip-rule="evenodd" d="M14.1367 21.7147V19.353L15.556 18.5339L16.9753 17.7148V19.353H48.2618V17.7148L49.6811 18.5339L51.1005 19.353V21.7147H14.1367Z" fill="#111111"/>
</g>
<defs>
<clipPath id="clip0_3130_7972">
<rect width="86" height="21.7162" fill="white"/>
</clipPath>
</defs>
</svg>
