<svg width="196" height="67" viewBox="0 0 196 67" fill="none" xmlns="http://www.w3.org/2000/svg">
<g clip-path="url(#clip0_591_25023)">
<path opacity="0.8" fill-rule="evenodd" clip-rule="evenodd" d="M0 43.7452H7.65232V55.9996H0V43.7452Z" fill="#005BEA"/>
<path fill-rule="evenodd" clip-rule="evenodd" d="M16.9713 9.89287C26.3436 9.89287 33.9426 17.4905 33.9426 26.8641C33.9426 31.3172 32.2267 35.3696 29.4212 38.398L40.2837 55.7357H30.2839L22.3116 42.9782C20.6327 43.5346 18.8375 43.8354 16.9713 43.8354C7.59763 43.8354 0 36.2364 0 26.8641C0 17.4905 7.59763 9.89287 16.9713 9.89287ZM17.175 16.0262C11.2372 16.0262 6.42319 20.8388 6.42319 26.778C6.42319 32.7158 11.2358 37.5298 17.175 37.5298C23.1128 37.5298 27.9268 32.7158 27.9268 26.778C27.9268 20.8402 23.1128 16.0262 17.175 16.0262Z" fill="#005BEA"/>
<path opacity="0.6" fill-rule="evenodd" clip-rule="evenodd" d="M17.3951 9.89287H16.9713C7.59763 9.89287 0 17.4905 0 26.8641L0.00136722 26.7288H0V9.89287H17.3951Z" fill="#005BEA"/>
<path opacity="0.3" fill-rule="evenodd" clip-rule="evenodd" d="M17.3951 43.8354H16.9713C7.59763 43.8354 0 36.2364 0 26.8641L0.00136722 26.9995H0V43.8354H17.3951Z" fill="#005BEA"/>
<path d="M47.0488 14.793V9.25983H40.7773V14.793H47.0488ZM47.0488 43.1559V18.252H40.7773V43.1559H47.0488ZM58.7481 43.1559V30.5201C58.7481 24.3402 61.8831 23.4174 64.0515 23.4174C69.2879 23.4174 69.3973 28.8999 69.4001 31.2515V43.1559H75.7645V28.848C75.7439 26.242 75.316 17.5137 66.034 17.5137C62.4368 17.5137 59.7625 18.8057 57.9633 20.8361V18.252H52.3837V43.1559H58.7481ZM87.1411 43.8477C90.9693 43.8477 93.4125 42.7403 95.626 40.1125V43.1559H101.114V27.9374C101.114 25.6774 101.068 23.9246 100.1 22.0802C98.3468 18.7593 94.7496 17.5602 90.3691 17.5602C84.3738 17.5602 80.9613 20.4204 79.7157 24.5248L85.3883 26.3227C86.1717 24.0627 88.5233 23.2793 90.3691 23.2793C93.3195 23.2793 94.658 24.3402 94.9342 26.6454C90.2761 27.3372 86.679 27.8909 84.2809 28.7673C80.2694 30.2439 78.8393 32.8252 78.8393 36.2843C78.8393 40.4351 81.7912 43.8477 87.1411 43.8477ZM88.4782 38.9121C86.3098 38.9121 84.9727 37.8989 84.9727 36.1913C84.9727 34.9471 85.711 34.0707 87.5567 33.3338C88.9855 32.8252 90.6917 32.456 94.8877 31.7642C94.8426 32.9633 94.751 34.5315 94.2424 35.5924C93.7352 36.6534 91.9373 38.9121 88.4782 38.9121ZM112.303 43.1559V9.25983H106.032V43.1559H112.303ZM128.89 43.8477C136.362 43.8477 141.526 38.4513 141.526 30.7046C141.526 23.0031 136.407 17.5602 128.89 17.5602C121.512 17.5602 116.301 22.9101 116.301 30.7046C116.301 38.4062 121.373 43.8477 128.89 43.8477ZM128.89 37.9905C124.971 37.9905 122.942 35.1782 122.942 30.7033C122.942 26.3692 124.787 23.4174 128.89 23.4174C132.857 23.4174 134.886 26.2762 134.886 30.7046C134.886 34.9936 132.903 37.9905 128.89 37.9905ZM155.715 54.9167C161.203 54.9167 165.815 52.7948 167.014 48.2283C167.291 47.1687 167.383 46.1077 167.383 44.8622V18.252H161.895V19.6356C160.235 18.2985 158.067 17.5602 155.486 17.5602C148.336 17.5602 143.68 23.0947 143.68 30.7046C143.68 38.1751 148.291 43.8477 155.163 43.8477C157.515 43.8477 159.497 43.294 161.11 42.2795V44.7706C161.203 47.5365 158.575 48.9679 155.762 48.9679C154.009 48.9679 152.396 48.1832 151.611 46.7066L145.8 49.5203C147.691 52.7483 151.474 54.9167 155.715 54.9167ZM156.177 38.2681C152.118 38.2681 150.32 34.9006 150.32 30.7046C150.32 26.5538 152.211 23.1412 156.407 23.1412C160.327 23.1412 161.895 26.1846 161.895 30.7046C161.895 35.2233 160.373 38.2681 156.177 38.2681ZM181.296 54.2235L195.362 18.252H189.089L182.587 35.1782L176.038 18.252H169.535L179.59 42.9713L175.485 54.2235H181.296Z" fill="#005BEA"/>
</g>
<defs>
<clipPath id="clip0_591_25023">
<rect width="195.512" height="65.6265" fill="white" transform="translate(0 0.772125)"/>
</clipPath>
</defs>
</svg>
